<svg width="24" height="25" viewBox="0 0 24 25" fill="none" xmlns="http://www.w3.org/2000/svg">
<mask id="mask0_53_291" style="mask-type:alpha" maskUnits="userSpaceOnUse" x="0" y="0" width="24" height="25">
<g clip-path="url(#clip0_53_291)">
<path fill-rule="evenodd" clip-rule="evenodd" d="M2.79854 5.51671C2 6.90696 2 8.77131 2 12.5C2 16.2287 2 18.093 2.79854 19.4833C3.32853 20.406 4.094 21.1715 5.01671 21.7015C6.40696 22.5 8.27131 22.5 12 22.5C15.7287 22.5 17.593 22.5 18.9833 21.7015C19.906 21.1715 20.6715 20.406 21.2015 19.4833C22 18.093 22 16.2287 22 12.5C22 8.77131 22 6.90696 21.2015 5.51671C20.6715 4.594 19.906 3.82853 18.9833 3.29854C17.593 2.5 15.7287 2.5 12 2.5C8.27131 2.5 6.40696 2.5 5.01671 3.29854C4.094 3.82853 3.32853 4.594 2.79854 5.51671ZM16.1917 20.4411C15.1947 20.5311 13.9003 20.533 11.9999 20.533C10.0996 20.533 8.80522 20.5311 7.80819 20.4411C6.83803 20.3535 6.34324 20.195 5.99635 19.9958C5.37561 19.6392 4.86067 19.1243 4.50412 18.5035C4.30488 18.1566 4.14634 17.6619 4.05878 16.6917C3.96879 15.6947 3.96693 14.4003 3.96693 12.4999C3.96693 10.5996 3.96879 9.30522 4.05878 8.30819C4.14634 7.33803 4.30488 6.84324 4.50412 6.49635C4.86067 5.87561 5.37561 5.36067 5.99635 5.00412C6.34324 4.80488 6.83803 4.64634 7.80819 4.55878C8.80522 4.46879 10.0996 4.46693 11.9999 4.46693C13.9003 4.46693 15.1947 4.46879 16.1917 4.55878C17.1619 4.64634 17.6566 4.80488 18.0035 5.00412C18.6243 5.36067 19.1392 5.87561 19.4958 6.49635C19.695 6.84324 19.8535 7.33803 19.9411 8.30819C20.0311 9.30522 20.033 10.5996 20.033 12.4999C20.033 14.4003 20.0311 15.6947 19.9411 16.6917C19.8535 17.6619 19.695 18.1566 19.4958 18.5035C19.1392 19.1243 18.6243 19.6392 18.0035 19.9958C17.6566 20.195 17.1619 20.3535 16.1917 20.4411ZM15.8685 7.28562C15.8685 6.54328 16.4703 5.94154 17.2126 5.94154C17.9549 5.94154 18.5567 6.54329 18.5567 7.28562C18.5567 8.02795 17.955 8.62975 17.2126 8.62975C16.4703 8.62975 15.8685 8.02796 15.8685 7.28562ZM12 7.28517C9.12021 7.28517 6.78569 9.6197 6.78569 12.4995C6.78569 15.3792 9.12021 17.7138 12 17.7138C14.8797 17.7138 17.2143 15.3792 17.2143 12.4995C17.2143 9.6197 14.8797 7.28517 12 7.28517ZM8.88557 12.4996C8.88557 10.7795 10.28 9.38515 12 9.38515C13.72 9.38515 15.1144 10.7795 15.1144 12.4996C15.1144 14.2196 13.72 15.614 12 15.614C10.28 15.614 8.88557 14.2196 8.88557 12.4996Z" fill="black"/>
</g>
</mask>
<g mask="url(#mask0_53_291)">
<rect y="0.5" width="24" height="24" fill="#FDECFE"/>
</g>
<defs>
<clipPath id="clip0_53_291">
<rect width="24" height="24" fill="white" transform="translate(0 0.5)"/>
</clipPath>
</defs>
</svg>
