<svg width="24" height="25" viewBox="0 0 24 25" fill="none" xmlns="http://www.w3.org/2000/svg">
<mask id="mask0_53_303" style="mask-type:alpha" maskUnits="userSpaceOnUse" x="0" y="0" width="24" height="25">
<g clip-path="url(#clip0_53_303)">
<path fill-rule="evenodd" clip-rule="evenodd" d="M2 9.61111C2 7.12199 2 5.87743 2.48442 4.92671C2.91052 4.09043 3.59043 3.41052 4.42671 2.98442C5.37743 2.5 6.62199 2.5 9.11111 2.5H14.8889C17.378 2.5 18.6226 2.5 19.5733 2.98442C20.4096 3.41052 21.0895 4.09043 21.5156 4.92671C22 5.87743 22 7.12199 22 9.61111V15.3889C22 17.878 22 19.1226 21.5156 20.0733C21.0895 20.9096 20.4096 21.5895 19.5733 22.0156C18.6226 22.5 17.378 22.5 14.8889 22.5H9.11111C6.62199 22.5 5.37743 22.5 4.42671 22.0156C3.59043 21.5895 2.91052 20.9096 2.48442 20.0733C2 19.1226 2 17.878 2 15.3889V9.61111ZM7.2501 9.21626C6.34846 9.21626 5.7251 8.55444 5.7251 7.74555C5.7251 6.91922 6.31598 6.22498 7.23515 6.22498C8.1542 6.22498 8.69412 6.91925 8.71158 7.74558C8.71158 8.55447 8.05925 9.21626 7.26763 9.21626H7.2501ZM10.1369 10.3515C10.1722 11.1419 10.1368 18.7751 10.1368 18.7751H12.7537V14.0709C12.7537 13.8191 12.8227 13.5676 12.8938 13.3876C13.0879 12.8848 13.4858 12.4507 14.2281 12.4507C15.2004 12.4507 15.6729 13.1366 15.6729 14.2683V18.7751H18.2752V13.945C18.2752 11.0388 17.0499 10.1536 15.2822 10.1536C13.8569 10.1536 13.014 10.9702 12.6502 11.5442V10.3515H10.1369ZM5.9093 18.7751H8.505V10.3514H5.9093V18.7751Z" fill="black"/>
</g>
</mask>
<g mask="url(#mask0_53_303)">
<rect y="0.5" width="24" height="24" fill="#FDECFE"/>
</g>
<defs>
<clipPath id="clip0_53_303">
<rect width="24" height="24" fill="white" transform="translate(0 0.5)"/>
</clipPath>
</defs>
</svg>
